<?xml version="1.0" standalone="no"?>
<!DOCTYPE svg PUBLIC "-//W3C//DTD SVG 20010904//EN"
 "http://www.w3.org/TR/2001/REC-SVG-20010904/DTD/svg10.dtd">
<svg version="1.0" xmlns="http://www.w3.org/2000/svg"
 width="500.000000pt" height="500.000000pt" viewBox="0 0 500.000000 500.000000"
 preserveAspectRatio="xMidYMid meet">

<g transform="translate(0.000000,500.000000) scale(0.100000,-0.100000)"
fill="#000000" stroke="none">
<path d="M2482 4807 c-6 -7 -16 -61 -22 -121 -26 -261 -150 -595 -312 -844
-82 -125 -248 -337 -374 -477 -338 -377 -448 -535 -537 -775 -60 -160 -81
-289 -82 -480 0 -187 12 -267 61 -420 110 -345 369 -640 699 -796 208 -98 349
-129 595 -128 211 0 326 19 482 79 199 77 333 161 472 294 162 156 283 349
359 571 65 190 75 500 23 706 -76 305 -189 490 -545 893 -300 339 -451 554
-564 807 -83 185 -148 412 -166 583 -6 51 -15 99 -22 107 -14 18 -53 18 -67 1z
m57 -1380 c15 -115 69 -301 120 -410 60 -130 127 -235 257 -402 194 -249 254
-350 288 -487 19 -76 23 -249 7 -320 -29 -129 -103 -250 -216 -356 -136 -127
-281 -182 -479 -182 -136 0 -214 18 -326 72 -69 34 -101 59 -170 128 -148 150
-200 263 -207 455 -10 246 53 385 329 730 131 164 245 371 297 541 27 88 43
166 67 329 7 47 7 48 15 20 4 -16 12 -70 18 -118z"/>
<path d="M2489 2698 c-29 -55 -130 -203 -214 -313 -125 -165 -149 -201 -173
-266 -91 -247 42 -508 293 -573 311 -82 607 165 564 470 -13 96 -55 175 -173
326 -57 73 -140 188 -185 256 -45 67 -86 122 -91 122 -5 0 -15 -10 -21 -22z"/>
<path d="M1620 3790 c-24 -24 -25 -38 -4 -68 18 -26 65 -30 84 -7 18 22 15 66
-6 82 -25 19 -51 16 -74 -7z"/>
<path d="M3340 3790 c-11 -11 -20 -28 -20 -38 0 -41 69 -69 98 -40 20 20 14
65 -10 82 -30 21 -44 20 -68 -4z"/>
<path d="M1084 3636 c-38 -17 -50 -55 -30 -94 8 -15 61 -73 119 -129 113 -111
132 -120 181 -82 18 14 26 30 26 51 0 25 -19 49 -112 143 -62 63 -122 116
-133 119 -11 3 -34 -1 -51 -8z"/>
<path d="M3899 3642 c-19 -2 -62 -39 -138 -117 -122 -124 -134 -150 -88 -193
46 -43 74 -29 218 113 98 97 109 117 93 160 -9 22 -53 41 -85 37z"/>
<path d="M886 2964 c-19 -18 -21 -75 -4 -92 22 -22 76 -15 94 13 38 58 -42
128 -90 79z"/>
<path d="M4060 2960 c-39 -39 -14 -100 43 -100 33 0 57 24 57 59 0 55 -61 80
-100 41z"/>
<path d="M425 2285 c-30 -29 -32 -64 -6 -96 19 -24 21 -24 219 -24 198 0 201
0 226 24 33 31 33 65 1 96 -24 25 -25 25 -220 25 -195 0 -196 0 -220 -25z"/>
<path d="M4166 2289 c-32 -25 -34 -66 -7 -100 19 -24 21 -24 215 -23 207 2
236 8 250 52 10 29 -11 71 -39 82 -15 6 -109 10 -209 10 -170 0 -185 -1 -210
-21z"/>
<path d="M4103 1644 c-15 -24 -15 -29 -2 -53 19 -33 52 -38 78 -12 26 26 26
46 1 71 -27 27 -56 25 -77 -6z"/>
<path d="M849 1634 c-10 -29 10 -74 34 -74 24 0 57 31 57 54 0 30 -18 46 -52
46 -22 0 -31 -6 -39 -26z"/>
<path d="M1165 1140 c-11 -4 -49 -38 -83 -74 -48 -51 -62 -74 -62 -97 0 -68
47 -95 104 -60 46 29 136 138 136 166 0 46 -53 82 -95 65z"/>
<path d="M3791 1124 c-36 -46 -28 -69 51 -151 65 -67 76 -74 107 -71 42 4 77
44 68 80 -7 25 -95 123 -137 151 -35 24 -65 21 -89 -9z"/>
<path d="M1608 715 c-13 -29 1 -71 27 -81 24 -9 65 23 65 51 0 53 -71 77 -92
30z"/>
<path d="M3346 724 c-9 -8 -16 -24 -16 -35 0 -23 34 -59 55 -59 18 0 55 35 55
53 0 46 -62 73 -94 41z"/>
<path d="M1886 564 c-22 -21 -21 -71 2 -82 39 -21 93 29 73 67 -18 32 -51 39
-75 15z"/>
<path d="M3086 565 c-24 -24 -20 -62 9 -81 23 -15 27 -15 50 0 25 16 32 49 17
73 -13 21 -58 26 -76 8z"/>
<path d="M2472 470 c-38 -36 -42 -141 -6 -181 21 -23 71 -25 102 -3 19 13 22
24 22 83 0 54 -4 74 -21 95 -25 32 -66 34 -97 6z"/>
</g>
</svg>
